<?xml version="1.0" encoding="UTF-8" standalone="no"?>
<svg xmlns:inkscape="http://www.inkscape.org/namespaces/inkscape" xmlns:rdf="http://www.w3.org/1999/02/22-rdf-syntax-ns#" xmlns="http://www.w3.org/2000/svg" xmlns:cc="http://creativecommons.org/ns#" xmlns:dc="http://purl.org/dc/elements/1.1/" xmlns:sodipodi="http://sodipodi.sourceforge.net/DTD/sodipodi-0.dtd" id="svg2" sodipodi:docname="_svgclean2.svg" viewBox="0 0 161.64 223.98" version="1.1" inkscape:version="0.48.3.1 r9886">
  <sodipodi:namedview id="namedview8" bordercolor="#666666" inkscape:pageshadow="2" guidetolerance="10" pagecolor="#ffffff" gridtolerance="10" inkscape:window-maximized="0" inkscape:zoom="0.22425739" objecttolerance="10" borderopacity="1" inkscape:current-layer="svg2" inkscape:cx="370.61277" inkscape:cy="-300.18109" inkscape:window-y="0" inkscape:window-x="0" inkscape:window-width="640" showgrid="false" inkscape:pageopacity="0" inkscape:window-height="480"/>
  <path id="path4" inkscape:connector-curvature="0" d="m75.066 166.68c13.7 6.3 20.2 7.2 34.6 4.3l-13.6 9.7-6.2 36.6-1.7-37.6zm-72.6-86.5c-2.9 4.5-3.5 7.7-0.4 12.2l47.9 68.7-9.4 62.9h86.4v-53.7l23.8-48.1c3.1-6.2 3.7-10.2 3.7-23.9l-28.5 29.5-24.1-12.4-7.3 38.9c-7.7-35.9-24.7-57.8-51.4-69.1l7.6-14.6c30.8 16.5 42.2-11.7 37.3-14l-48-23c-4-1.9-6.4-1.8-8.85 2.1zm143.3-13.6-33.3 36.7c-2.1 2.3 11.6 16.3 13.7 14.5l35.1-31.5c3-2.7-13-22.5-15.5-19.7zm-55.8 16.1c-1.8 2.4 17.5 19.4 19.2 17.5l35.7-39.6c3.7-4.1-20.1-25.4-22.55-22.05zm1.4-67.6-17.4 29.2 15.7 8.2c4 2.1 5.2 8 1.5 21.4l28-40.7c2.9-4.4-25.3-22.3-27.8-18.1zm-32.7-14.2-15.9 28.7 26.7 12.6 16.5-27.3c2.7-4.5-24.8-18.5-27.3-14z"/>
  <metadata id="metadata6">
    <rdf:RDF>
      <cc:Work>
        <dc:format>image/svg+xml</dc:format>
        <dc:type rdf:resource="http://purl.org/dc/dcmitype/StillImage"/>
        <cc:license rdf:resource="http://creativecommons.org/licenses/publicdomain/"/>
        <dc:publisher>
          <cc:Agent rdf:about="http://openclipart.org/">
            <dc:title>Openclipart</dc:title>
          </cc:Agent>
        </dc:publisher>
      </cc:Work>
      <cc:License rdf:about="http://creativecommons.org/licenses/publicdomain/">
        <cc:permits rdf:resource="http://creativecommons.org/ns#Reproduction"/>
        <cc:permits rdf:resource="http://creativecommons.org/ns#Distribution"/>
        <cc:permits rdf:resource="http://creativecommons.org/ns#DerivativeWorks"/>
      </cc:License>
    </rdf:RDF>
  </metadata>
</svg>